<svg width="30" height="30" viewBox="0 0 30 30" fill="none" xmlns="http://www.w3.org/2000/svg">
<circle cx="15" cy="15" r="15" fill="#537FA4"/>
<path d="M8 7V11.2783H12.4403C13.1234 10.4022 14.1932 9.83723 15.3966 9.83723C16.6 9.83723 17.6706 10.4021 18.3537 11.2783H23V7H8ZM20.0035 7.63629H21.4061C21.9054 7.63629 22.3069 8.03875 22.3069 8.53809V9.71271C22.3069 10.212 21.9054 10.6145 21.4061 10.6145H20.0035C19.5042 10.6145 19.1026 10.2121 19.1026 9.71271V8.53809C19.1026 8.03876 19.5042 7.63629 20.0035 7.63629V7.63629ZM9.64704 7.65002H10.1588V10.6154H9.64704V7.65002V7.65002ZM10.5268 7.65002H11.0542V10.6154H10.5268V7.65002V7.65002ZM11.4222 7.65002H11.934V10.6154H11.4222V7.65002V7.65002ZM9.26342 7.72968V10.6154H8.73516V8.53809C8.73516 8.35846 8.78586 8.19454 8.88714 8.04645C8.98843 7.89846 9.11417 7.7931 9.26342 7.72968V7.72968ZM15.3911 10.262C13.5715 10.262 12.0961 11.7309 12.0961 13.5414C12.0961 15.352 13.5715 16.82 15.3911 16.82C17.2106 16.82 18.686 15.352 18.686 13.5414C18.686 11.7309 17.2106 10.262 15.3911 10.262V10.262ZM15.3911 10.9276C16.8419 10.9276 18.0177 12.0978 18.0177 13.5414C18.0177 14.9851 16.8419 16.1553 15.3911 16.1553C13.9402 16.1553 12.7644 14.9851 12.7644 13.5414C12.7644 12.0978 13.9402 10.9276 15.3911 10.9276V10.9276ZM8 11.8843V22H23V11.8843H18.7391C18.9907 12.3825 19.1319 12.9455 19.1319 13.5405C19.1319 15.5855 17.4594 17.2429 15.3966 17.2429C13.3337 17.2429 11.6621 15.5855 11.6621 13.5405C11.6621 12.9454 11.8041 12.3826 12.0558 11.8843H8V11.8843Z" fill="white"/>
</svg>
