<svg width="30" height="30" viewBox="0 0 30 30" fill="none" xmlns="http://www.w3.org/2000/svg">
<circle cx="15" cy="15" r="15" fill="#006FA9"/>
<path fill-rule="evenodd" clip-rule="evenodd" d="M12.8931 12.6056H15.2144V13.7619C15.5487 13.0969 16.4062 12.4994 17.6944 12.4994C20.1638 12.4994 20.75 13.8231 20.75 16.2519V20.75H18.25V16.805C18.25 15.4219 17.9156 14.6419 17.0644 14.6419C15.8838 14.6419 15.3931 15.4825 15.3931 16.8044V20.75H12.8931V12.6056V12.6056ZM8.60625 20.6437H11.1063V12.4994H8.60625V20.6437V20.6437ZM11.4644 9.84375C11.4645 10.0533 11.4229 10.2608 11.3421 10.4541C11.2613 10.6475 11.1429 10.8228 10.9937 10.97C10.6915 11.2704 10.2824 11.4385 9.85625 11.4375C9.43087 11.4372 9.02269 11.2695 8.72 10.9706C8.57138 10.8229 8.45337 10.6474 8.37271 10.454C8.29206 10.2606 8.25036 10.0533 8.25 9.84375C8.25 9.42063 8.41875 9.01563 8.72063 8.71688C9.02305 8.4176 9.4314 8.24981 9.85688 8.25C10.2831 8.25 10.6919 8.41813 10.9937 8.71688C11.295 9.01563 11.4644 9.42063 11.4644 9.84375Z" fill="white"/>
</svg>
