<svg width="163" height="38" viewBox="0 0 163 38" fill="none" xmlns="http://www.w3.org/2000/svg">
<rect width="163" height="38" fill="#3A3A3A"/>
<path d="M20.3583 25V12.6364H22.2237V23.3942H27.826V25H20.3583ZM40.2123 18.8182C40.2123 20.1383 39.9708 21.2732 39.4878 22.223C39.0049 23.1688 38.3428 23.8973 37.5017 24.4084C36.6646 24.9155 35.7127 25.169 34.6462 25.169C33.5757 25.169 32.6198 24.9155 31.7787 24.4084C30.9416 23.8973 30.2815 23.1668 29.7986 22.217C29.3156 21.2672 29.0741 20.1342 29.0741 18.8182C29.0741 17.4981 29.3156 16.3652 29.7986 15.4194C30.2815 14.4696 30.9416 13.7411 31.7787 13.234C32.6198 12.7229 33.5757 12.4673 34.6462 12.4673C35.7127 12.4673 36.6646 12.7229 37.5017 13.234C38.3428 13.7411 39.0049 14.4696 39.4878 15.4194C39.9708 16.3652 40.2123 17.4981 40.2123 18.8182ZM38.365 18.8182C38.365 17.812 38.202 16.9648 37.876 16.2766C37.554 15.5844 37.1113 15.0612 36.5479 14.707C35.9884 14.3488 35.3546 14.1697 34.6462 14.1697C33.9339 14.1697 33.298 14.3488 32.7385 14.707C32.1791 15.0612 31.7364 15.5844 31.4104 16.2766C31.0885 16.9648 30.9275 17.812 30.9275 18.8182C30.9275 19.8243 31.0885 20.6735 31.4104 21.3658C31.7364 22.054 32.1791 22.5772 32.7385 22.9354C33.298 23.2895 33.9339 23.4666 34.6462 23.4666C35.3546 23.4666 35.9884 23.2895 36.5479 22.9354C37.1113 22.5772 37.554 22.054 37.876 21.3658C38.202 20.6735 38.365 19.8243 38.365 18.8182ZM50.9052 16.5423C50.7885 16.176 50.6315 15.848 50.4343 15.5582C50.2411 15.2644 50.0097 15.0149 49.7401 14.8097C49.4704 14.6004 49.1625 14.4414 48.8164 14.3327C48.4743 14.2241 48.098 14.1697 47.6875 14.1697C46.9912 14.1697 46.3634 14.3488 45.804 14.707C45.2446 15.0652 44.8018 15.5904 44.4759 16.2827C44.1539 16.9709 43.9929 17.814 43.9929 18.8121C43.9929 19.8143 44.1559 20.6615 44.4819 21.3537C44.8079 22.0459 45.2546 22.5711 45.8221 22.9293C46.3896 23.2875 47.0355 23.4666 47.7599 23.4666C48.4321 23.4666 49.0176 23.3298 49.5167 23.0561C50.0198 22.7824 50.4081 22.3961 50.6818 21.897C50.9595 21.3939 51.0984 20.8023 51.0984 20.1222L51.5813 20.2127H48.0437V18.6733H52.9034V20.0799C52.9034 21.1183 52.6821 22.0198 52.2393 22.7844C51.8007 23.5451 51.1929 24.1327 50.4162 24.5472C49.6435 24.9618 48.758 25.169 47.7599 25.169C46.6411 25.169 45.6591 24.9115 44.8139 24.3963C43.9728 23.8812 43.3168 23.1507 42.8459 22.2049C42.375 21.2551 42.1396 20.1282 42.1396 18.8242C42.1396 17.8382 42.2764 16.9528 42.5501 16.168C42.8237 15.3832 43.2081 14.7171 43.7031 14.1697C44.2022 13.6184 44.7878 13.1978 45.4599 12.908C46.136 12.6142 46.8745 12.4673 47.6754 12.4673C48.3435 12.4673 48.9653 12.5659 49.5408 12.7631C50.1204 12.9603 50.6355 13.2401 51.0863 13.6023C51.5411 13.9645 51.9174 14.3951 52.2152 14.8942C52.513 15.3892 52.7143 15.9386 52.8189 16.5423H50.9052ZM66.0111 18.8182C66.0111 20.1383 65.7696 21.2732 65.2867 22.223C64.8037 23.1688 64.1417 23.8973 63.3005 24.4084C62.4634 24.9155 61.5116 25.169 60.445 25.169C59.3745 25.169 58.4186 24.9155 57.5775 24.4084C56.7404 23.8973 56.0803 23.1668 55.5974 22.217C55.1144 21.2672 54.873 20.1342 54.873 18.8182C54.873 17.4981 55.1144 16.3652 55.5974 15.4194C56.0803 14.4696 56.7404 13.7411 57.5775 13.234C58.4186 12.7229 59.3745 12.4673 60.445 12.4673C61.5116 12.4673 62.4634 12.7229 63.3005 13.234C64.1417 13.7411 64.8037 14.4696 65.2867 15.4194C65.7696 16.3652 66.0111 17.4981 66.0111 18.8182ZM64.1638 18.8182C64.1638 17.812 64.0008 16.9648 63.6748 16.2766C63.3528 15.5844 62.9101 15.0612 62.3467 14.707C61.7873 14.3488 61.1534 14.1697 60.445 14.1697C59.7327 14.1697 59.0968 14.3488 58.5374 14.707C57.978 15.0612 57.5352 15.5844 57.2093 16.2766C56.8873 16.9648 56.7263 17.812 56.7263 18.8182C56.7263 19.8243 56.8873 20.6735 57.2093 21.3658C57.5352 22.054 57.978 22.5772 58.5374 22.9354C59.0968 23.2895 59.7327 23.4666 60.445 23.4666C61.1534 23.4666 61.7873 23.2895 62.3467 22.9354C62.9101 22.5772 63.3528 22.054 63.6748 21.3658C64.0008 20.6735 64.1638 19.8243 64.1638 18.8182ZM72.6668 25V23.6477L76.8504 19.3132C77.2971 18.8423 77.6654 18.4298 77.9552 18.0756C78.249 17.7174 78.4683 17.3774 78.6132 17.0554C78.7581 16.7334 78.8305 16.3913 78.8305 16.0291C78.8305 15.6186 78.7339 15.2644 78.5407 14.9666C78.3476 14.6648 78.084 14.4334 77.7499 14.2724C77.4159 14.1074 77.0396 14.0249 76.621 14.0249C76.1783 14.0249 75.7919 14.1154 75.4619 14.2965C75.1319 14.4776 74.8783 14.7332 74.7013 15.0632C74.5242 15.3932 74.4356 15.7796 74.4356 16.2223H72.6547C72.6547 15.4697 72.8278 14.8117 73.1739 14.2482C73.52 13.6848 73.9949 13.2481 74.5986 12.9382C75.2023 12.6243 75.8885 12.4673 76.6572 12.4673C77.434 12.4673 78.1182 12.6223 78.7098 12.9322C79.3054 13.238 79.7703 13.6566 80.1043 14.1879C80.4384 14.7151 80.6054 15.3107 80.6054 15.9748C80.6054 16.4336 80.5189 16.8823 80.3458 17.321C80.1768 17.7597 79.8809 18.2487 79.4584 18.788C79.0358 19.3233 78.4482 19.9732 77.6956 20.7379L75.2385 23.3097V23.4002H80.8046V25H72.6668ZM94.5039 15.8842C94.4395 15.3127 94.1739 14.87 93.707 14.5561C93.2402 14.2382 92.6526 14.0792 91.9442 14.0792C91.4371 14.0792 90.9985 14.1597 90.6282 14.3207C90.2579 14.4776 89.9702 14.695 89.7649 14.9727C89.5637 15.2463 89.4631 15.5582 89.4631 15.9084C89.4631 16.2022 89.5315 16.4557 89.6683 16.669C89.8092 16.8823 89.9923 17.0614 90.2177 17.2063C90.4471 17.3472 90.6926 17.4659 90.9542 17.5625C91.2158 17.6551 91.4673 17.7315 91.7088 17.7919L92.9162 18.1058C93.3106 18.2024 93.7151 18.3332 94.1296 18.4982C94.5442 18.6632 94.9285 18.8806 95.2827 19.1502C95.6368 19.4199 95.9226 19.7539 96.1399 20.1523C96.3613 20.5508 96.4719 21.0277 96.4719 21.5831C96.4719 22.2834 96.2908 22.9052 95.9286 23.4485C95.5704 23.9918 95.0492 24.4205 94.3651 24.7344C93.6849 25.0483 92.8619 25.2053 91.896 25.2053C90.9703 25.2053 90.1694 25.0584 89.4933 24.7646C88.8171 24.4708 88.2879 24.0542 87.9055 23.5149C87.5232 22.9716 87.3119 22.3277 87.2717 21.5831H89.1431C89.1793 22.0298 89.3242 22.4021 89.5778 22.6999C89.8353 22.9937 90.1634 23.2131 90.5618 23.358C90.9643 23.4988 91.4049 23.5692 91.8839 23.5692C92.4111 23.5692 92.88 23.4867 93.2905 23.3217C93.705 23.1527 94.031 22.9193 94.2685 22.6214C94.5059 22.3196 94.6246 21.9674 94.6246 21.565C94.6246 21.1987 94.52 20.8989 94.3107 20.6655C94.1055 20.4321 93.8258 20.2389 93.4716 20.0859C93.1214 19.933 92.725 19.7982 92.2823 19.6815L90.8214 19.283C89.8313 19.0134 89.0465 18.617 88.467 18.0938C87.8915 17.5705 87.6037 16.8783 87.6037 16.017C87.6037 15.3047 87.7969 14.6829 88.1832 14.1516C88.5696 13.6204 89.0928 13.2079 89.7528 12.9141C90.4129 12.6162 91.1574 12.4673 91.9865 12.4673C92.8236 12.4673 93.5621 12.6142 94.2021 12.908C94.846 13.2018 95.3531 13.6063 95.7234 14.1214C96.0936 14.6326 96.2868 15.2202 96.3029 15.8842H94.5039ZM98.7011 12.6364H100.965L104.901 22.2472H105.046L108.982 12.6364H111.246V25H109.471V16.0533H109.356L105.71 24.9819H104.237L100.591 16.0472H100.476V25H98.7011V12.6364ZM115.002 25H113.022L117.471 12.6364H119.627L124.076 25H122.096L118.6 14.8821H118.504L115.002 25ZM115.334 20.1584H121.758V21.728H115.334V20.1584ZM125.861 25V12.6364H127.727V23.3942H133.329V25H125.861ZM135.457 25V12.6364H137.322V23.3942H142.925V25H135.457Z" fill="white"/>
</svg>
