<svg width="235" height="74" viewBox="0 0 235 74" fill="none" xmlns="http://www.w3.org/2000/svg">
<rect width="235" height="74" fill="#3A3A3A"/>
<path d="M70.3583 43V30.6364H72.2237V41.3942H77.826V43H70.3583ZM90.2123 36.8182C90.2123 38.1383 89.9708 39.2732 89.4878 40.223C89.0049 41.1688 88.3428 41.8973 87.5017 42.4084C86.6646 42.9155 85.7127 43.169 84.6462 43.169C83.5757 43.169 82.6198 42.9155 81.7787 42.4084C80.9416 41.8973 80.2815 41.1668 79.7986 40.217C79.3156 39.2672 79.0741 38.1342 79.0741 36.8182C79.0741 35.4981 79.3156 34.3652 79.7986 33.4194C80.2815 32.4696 80.9416 31.7411 81.7787 31.234C82.6198 30.7229 83.5757 30.4673 84.6462 30.4673C85.7127 30.4673 86.6646 30.7229 87.5017 31.234C88.3428 31.7411 89.0049 32.4696 89.4878 33.4194C89.9708 34.3652 90.2123 35.4981 90.2123 36.8182ZM88.365 36.8182C88.365 35.812 88.202 34.9648 87.876 34.2766C87.554 33.5844 87.1113 33.0612 86.5479 32.707C85.9884 32.3488 85.3546 32.1697 84.6462 32.1697C83.9339 32.1697 83.298 32.3488 82.7385 32.707C82.1791 33.0612 81.7364 33.5844 81.4104 34.2766C81.0885 34.9648 80.9275 35.812 80.9275 36.8182C80.9275 37.8243 81.0885 38.6735 81.4104 39.3658C81.7364 40.054 82.1791 40.5772 82.7385 40.9354C83.298 41.2895 83.9339 41.4666 84.6462 41.4666C85.3546 41.4666 85.9884 41.2895 86.5479 40.9354C87.1113 40.5772 87.554 40.054 87.876 39.3658C88.202 38.6735 88.365 37.8243 88.365 36.8182ZM100.905 34.5423C100.788 34.176 100.632 33.848 100.434 33.5582C100.241 33.2644 100.01 33.0149 99.7401 32.8097C99.4704 32.6004 99.1625 32.4414 98.8164 32.3327C98.4743 32.2241 98.098 32.1697 97.6875 32.1697C96.9912 32.1697 96.3634 32.3488 95.804 32.707C95.2446 33.0652 94.8018 33.5904 94.4759 34.2827C94.1539 34.9709 93.9929 35.814 93.9929 36.8121C93.9929 37.8143 94.1559 38.6615 94.4819 39.3537C94.8079 40.0459 95.2546 40.5711 95.8221 40.9293C96.3896 41.2875 97.0355 41.4666 97.7599 41.4666C98.4321 41.4666 99.0176 41.3298 99.5167 41.0561C100.02 40.7824 100.408 40.3961 100.682 39.897C100.96 39.3939 101.098 38.8023 101.098 38.1222L101.581 38.2127H98.0437V36.6733H102.903V38.0799C102.903 39.1183 102.682 40.0198 102.239 40.7844C101.801 41.5451 101.193 42.1327 100.416 42.5472C99.6435 42.9618 98.758 43.169 97.7599 43.169C96.6411 43.169 95.6591 42.9115 94.8139 42.3963C93.9728 41.8812 93.3168 41.1507 92.8459 40.2049C92.375 39.2551 92.1396 38.1282 92.1396 36.8242C92.1396 35.8382 92.2764 34.9528 92.5501 34.168C92.8237 33.3832 93.2081 32.7171 93.7031 32.1697C94.2022 31.6184 94.7878 31.1978 95.4599 30.908C96.136 30.6142 96.8745 30.4673 97.6754 30.4673C98.3435 30.4673 98.9653 30.5659 99.5408 30.7631C100.12 30.9603 100.636 31.2401 101.086 31.6023C101.541 31.9645 101.917 32.3951 102.215 32.8942C102.513 33.3892 102.714 33.9386 102.819 34.5423H100.905ZM116.011 36.8182C116.011 38.1383 115.77 39.2732 115.287 40.223C114.804 41.1688 114.142 41.8973 113.301 42.4084C112.463 42.9155 111.512 43.169 110.445 43.169C109.374 43.169 108.419 42.9155 107.578 42.4084C106.74 41.8973 106.08 41.1668 105.597 40.217C105.114 39.2672 104.873 38.1342 104.873 36.8182C104.873 35.4981 105.114 34.3652 105.597 33.4194C106.08 32.4696 106.74 31.7411 107.578 31.234C108.419 30.7229 109.374 30.4673 110.445 30.4673C111.512 30.4673 112.463 30.7229 113.301 31.234C114.142 31.7411 114.804 32.4696 115.287 33.4194C115.77 34.3652 116.011 35.4981 116.011 36.8182ZM114.164 36.8182C114.164 35.812 114.001 34.9648 113.675 34.2766C113.353 33.5844 112.91 33.0612 112.347 32.707C111.787 32.3488 111.153 32.1697 110.445 32.1697C109.733 32.1697 109.097 32.3488 108.537 32.707C107.978 33.0612 107.535 33.5844 107.209 34.2766C106.887 34.9648 106.726 35.812 106.726 36.8182C106.726 37.8243 106.887 38.6735 107.209 39.3658C107.535 40.054 107.978 40.5772 108.537 40.9354C109.097 41.2895 109.733 41.4666 110.445 41.4666C111.153 41.4666 111.787 41.2895 112.347 40.9354C112.91 40.5772 113.353 40.054 113.675 39.3658C114.001 38.6735 114.164 37.8243 114.164 36.8182ZM122.836 30.6364H125.1L129.036 40.2472H129.181L133.117 30.6364H135.381V43H133.606V34.0533H133.491L129.845 42.9819H128.372L124.725 34.0472H124.611V43H122.836V30.6364ZM139.137 43H137.157L141.606 30.6364H143.761L148.211 43H146.23L142.735 32.8821H142.638L139.137 43ZM139.469 38.1584H145.892V39.728H139.469V38.1584ZM151.861 30.6364V43H149.996V30.6364H151.861ZM164.557 30.6364V43H162.843L156.558 33.9325H156.443V43H154.578V30.6364H156.305L162.595 39.7159H162.71V30.6364H164.557Z" fill="white"/>
</svg>
