<svg width="30" height="30" viewBox="0 0 30 30" fill="none" xmlns="http://www.w3.org/2000/svg">
<circle cx="15" cy="15" r="15" fill="#29ACE4"/>
<path d="M22.7769 10.0856C22.255 10.3169 21.6944 10.4731 21.105 10.5438C21.7131 10.1799 22.1681 9.60717 22.385 8.9325C21.8137 9.27187 21.1883 9.51075 20.5362 9.63875C20.0977 9.17054 19.5169 8.86021 18.884 8.75592C18.251 8.65164 17.6013 8.75925 17.0358 9.06204C16.4702 9.36482 16.0205 9.84585 15.7563 10.4304C15.4922 11.015 15.4285 11.6705 15.575 12.295C14.4173 12.2369 13.2848 11.936 12.2509 11.4118C11.217 10.8877 10.3049 10.152 9.57375 9.2525C9.32375 9.68375 9.18 10.1838 9.18 10.7163C9.17972 11.1956 9.29777 11.6677 9.52367 12.0905C9.74958 12.5133 10.0764 12.8738 10.475 13.14C10.0127 13.1253 9.56055 13.0004 9.15625 12.7756V12.8131C9.1562 13.4855 9.38877 14.1371 9.81449 14.6575C10.2402 15.1779 10.8329 15.535 11.4919 15.6681C11.063 15.7842 10.6133 15.8013 10.1769 15.7181C10.3628 16.2966 10.725 16.8025 11.2127 17.165C11.7005 17.5274 12.2893 17.7282 12.8969 17.7394C11.8655 18.549 10.5918 18.9882 9.28062 18.9863C9.04836 18.9863 8.8163 18.9728 8.58562 18.9456C9.91655 19.8014 11.4658 20.2555 13.0481 20.2538C18.4044 20.2538 21.3325 15.8175 21.3325 11.97C21.3325 11.845 21.3294 11.7188 21.3238 11.5938C21.8933 11.1819 22.3849 10.6718 22.7756 10.0875L22.7769 10.0856V10.0856Z" fill="white"/>
</svg>
