<svg width="30" height="30" viewBox="0 0 30 30" fill="none" xmlns="http://www.w3.org/2000/svg">
<circle cx="15" cy="15" r="15" fill="#FF3530"/>
<path d="M20.7886 12.3374C20.7139 12.0591 20.5674 11.8054 20.3638 11.6015C20.1602 11.3977 19.9066 11.2508 19.6284 11.1758C18.6045 10.9004 14.5 10.9004 14.5 10.9004C14.5 10.9004 10.3955 10.9004 9.37158 11.1743C9.09329 11.2491 8.83959 11.3959 8.63595 11.5998C8.43231 11.8037 8.2859 12.0576 8.21143 12.3359C7.9375 13.3613 7.9375 15.5 7.9375 15.5C7.9375 15.5 7.9375 17.6387 8.21143 18.6626C8.3623 19.228 8.80762 19.6733 9.37158 19.8242C10.3955 20.0996 14.5 20.0996 14.5 20.0996C14.5 20.0996 18.6045 20.0996 19.6284 19.8242C20.1938 19.6733 20.6377 19.228 20.7886 18.6626C21.0625 17.6387 21.0625 15.5 21.0625 15.5C21.0625 15.5 21.0625 13.3613 20.7886 12.3374ZM13.1963 17.4629V13.5371L16.5947 15.4854L13.1963 17.4629Z" fill="white"/>
</svg>
